<?xml version="1.0" encoding="UTF-8"?>
<svg xmlns="http://www.w3.org/2000/svg" width="1080" height="1350" viewBox="0 0 1080 1350">
  <defs>
    <linearGradient id="bg" x1="0" y1="0" x2="1" y2="1">
      <stop offset="0" stop-color="#030303"/>
      <stop offset="0.54" stop-color="#101417"/>
      <stop offset="1" stop-color="#030303"/>
    </linearGradient>
    <pattern id="grid" width="54" height="54" patternUnits="userSpaceOnUse">
      <path d="M54 0H0V54" fill="none" stroke="#f2f0ea" stroke-opacity="0.045" stroke-width="1"/>
    </pattern>
    <pattern id="paperGrid" width="24" height="24" patternUnits="userSpaceOnUse">
      <path d="M24 0H0V24" fill="none" stroke="#352f25" stroke-opacity="0.36" stroke-width="1"/>
    </pattern>
    <filter id="grain">
      <feTurbulence type="fractalNoise" baseFrequency="0.8" numOctaves="3" stitchTiles="stitch"/>
      <feColorMatrix type="saturate" values="0"/>
      <feComponentTransfer>
        <feFuncA type="table" tableValues="0 0.16"/>
      </feComponentTransfer>
    </filter>
    <radialGradient id="redPool" cx="20%" cy="0%" r="82%">
      <stop offset="0" stop-color="#8f1712" stop-opacity="0.48"/>
      <stop offset="0.62" stop-color="#8f1712" stop-opacity="0"/>
    </radialGradient>
  </defs>
  <rect width="1080" height="1350" fill="url(#bg)"/>
  <rect width="1080" height="1350" fill="url(#grid)"/>
  <rect width="1080" height="1350" fill="url(#redPool)"/>
  <rect x="42" y="42" width="996" height="1266" fill="none" stroke="#f2f0ea" stroke-opacity="0.16"/>
  <rect x="62" y="62" width="956" height="1226" fill="none" stroke="#8f1712" stroke-opacity="0.18"/>
  <line x1="82" y1="92" x2="998" y2="92" stroke="#f2f0ea" stroke-opacity="0.12"/>
  <text x="82" y="124" fill="#c1b693" font-family="IBM Plex Mono, Consolas, monospace" font-size="24" font-weight="900" letter-spacing="8">DROP 02</text>
  <text x="82" y="218" fill="#f2f0ea" font-family="Arial Black, Impact, sans-serif" font-size="88" font-weight="800" text-anchor="start"><tspan x="82" dy="0">WHO GETS SPENT?</tspan></text>
  
      <g transform="translate(240 320)">
        <rect x="66" y="0" width="468" height="150" rx="10" fill="#101417" stroke="#f2f0ea" stroke-opacity="0.13"/>
        <rect x="112" y="112" width="376" height="340" fill="#d8d3c4"/>
        <rect x="112" y="112" width="376" height="340" fill="url(#paperGrid)" opacity="0.38"/>
        <rect x="154" y="190" width="238" height="12" fill="#030303" opacity="0.88"/><rect x="154" y="218" width="294" height="12" fill="#030303" opacity="0.88"/><rect x="154" y="246" width="176" height="12" fill="#030303" opacity="0.88"/><rect x="154" y="274" width="260" height="12" fill="#030303" opacity="0.88"/><rect x="154" y="302" width="214" height="12" fill="#030303" opacity="0.88"/>
        <rect x="166" y="328" width="246" height="58" fill="none" stroke="#8f1712" stroke-width="5" transform="rotate(-7 289 357)"/>
        <text x="289" y="366" text-anchor="middle" fill="#8f1712" font-family="Arial Black, Impact, sans-serif" font-size="34" font-weight="900" transform="rotate(-7 289 357)">SELECTED</text>
        <rect x="38" y="126" width="524" height="84" rx="6" fill="#0b0d0e" stroke="#f2f0ea" stroke-opacity="0.1"/>
      </g>
  <rect x="82" y="980" width="916" height="1" fill="#f2f0ea" opacity="0.16"/>
  <text x="82" y="1052" fill="#f2f0ea" font-family="Georgia, Times New Roman, serif" font-size="43" font-weight="700" text-anchor="start"><tspan x="82" dy="0">The machine asks who can be processed.</tspan></text>
  <text x="82" y="1238" fill="#c1b693" font-family="IBM Plex Mono, Consolas, monospace" font-size="22" font-weight="900" letter-spacing="5">THE DRAFT MACHINE</text>
  <text x="998" y="1238" text-anchor="end" fill="#f2f0ea" opacity="0.48" font-family="IBM Plex Mono, Consolas, monospace" font-size="18" font-weight="900" letter-spacing="4">MONTH ONE</text>
  <rect width="1080" height="1350" filter="url(#grain)" opacity="0.46"/>
</svg>