<?xml version="1.0" encoding="UTF-8"?>
<svg xmlns="http://www.w3.org/2000/svg" width="1080" height="1350" viewBox="0 0 1080 1350">
  <defs>
    <linearGradient id="bg" x1="0" y1="0" x2="1" y2="1">
      <stop offset="0" stop-color="#030303"/>
      <stop offset="0.54" stop-color="#191513"/>
      <stop offset="1" stop-color="#030303"/>
    </linearGradient>
    <pattern id="grid" width="54" height="54" patternUnits="userSpaceOnUse">
      <path d="M54 0H0V54" fill="none" stroke="#f2f0ea" stroke-opacity="0.045" stroke-width="1"/>
    </pattern>
    <pattern id="paperGrid" width="24" height="24" patternUnits="userSpaceOnUse">
      <path d="M24 0H0V24" fill="none" stroke="#352f25" stroke-opacity="0.36" stroke-width="1"/>
    </pattern>
    <filter id="grain">
      <feTurbulence type="fractalNoise" baseFrequency="0.8" numOctaves="3" stitchTiles="stitch"/>
      <feColorMatrix type="saturate" values="0"/>
      <feComponentTransfer>
        <feFuncA type="table" tableValues="0 0.16"/>
      </feComponentTransfer>
    </filter>
    <radialGradient id="redPool" cx="20%" cy="0%" r="82%">
      <stop offset="0" stop-color="#7a0d0a" stop-opacity="0.48"/>
      <stop offset="0.62" stop-color="#7a0d0a" stop-opacity="0"/>
    </radialGradient>
  </defs>
  <rect width="1080" height="1350" fill="url(#bg)"/>
  <rect width="1080" height="1350" fill="url(#grid)"/>
  <rect width="1080" height="1350" fill="url(#redPool)"/>
  <rect x="42" y="42" width="996" height="1266" fill="none" stroke="#f2f0ea" stroke-opacity="0.16"/>
  <rect x="62" y="62" width="956" height="1226" fill="none" stroke="#7a0d0a" stroke-opacity="0.18"/>
  <line x1="82" y1="92" x2="998" y2="92" stroke="#f2f0ea" stroke-opacity="0.12"/>
  <text x="82" y="124" fill="#b49252" font-family="IBM Plex Mono, Consolas, monospace" font-size="24" font-weight="900" letter-spacing="8">DROP 01</text>
  <text x="82" y="218" fill="#f2f0ea" font-family="Arial Black, Impact, sans-serif" font-size="88" font-weight="800" text-anchor="start"><tspan x="82" dy="0">THE FILE OPENS</tspan></text>
  
      <g transform="translate(230 330) rotate(-4 310 210)">
        <rect x="24" y="42" width="580" height="370" rx="8" fill="#15110e" stroke="#b49252" stroke-opacity="0.36"/>
        <path d="M24 76 L188 76 L225 112 L604 112 L604 42 L24 42 Z" fill="#211a13" stroke="#b49252" stroke-opacity="0.34"/>
        <rect x="78" y="152" width="452" height="180" fill="#d8c69d" opacity="0.88"/>
        <rect x="124" y="194" width="260" height="12" fill="#030303" opacity="0.88"/><rect x="124" y="222" width="354" height="12" fill="#030303" opacity="0.88"/><rect x="124" y="250" width="196" height="12" fill="#030303" opacity="0.88"/><rect x="124" y="278" width="310" height="12" fill="#030303" opacity="0.88"/>
        <text x="312" y="279" text-anchor="middle" fill="#7a0d0a" font-family="Arial Black, Impact, sans-serif" font-size="30" font-weight="900" transform="rotate(-7 312 279)">GARNIER DOSSIER</text>
      </g>
  <rect x="82" y="980" width="916" height="1" fill="#f2f0ea" opacity="0.16"/>
  <text x="82" y="1052" fill="#f2f0ea" font-family="Georgia, Times New Roman, serif" font-size="43" font-weight="700" text-anchor="start"><tspan x="82" dy="0">The file was never supposed to open</tspan><tspan x="82" dy="50.739999999999995">cleanly.</tspan></text>
  <text x="82" y="1238" fill="#b49252" font-family="IBM Plex Mono, Consolas, monospace" font-size="22" font-weight="900" letter-spacing="5">THE IRONIC INEPTOCRACY</text>
  <text x="998" y="1238" text-anchor="end" fill="#f2f0ea" opacity="0.48" font-family="IBM Plex Mono, Consolas, monospace" font-size="18" font-weight="900" letter-spacing="4">MONTH ONE</text>
  <rect width="1080" height="1350" filter="url(#grain)" opacity="0.46"/>
</svg>