<?xml version="1.0" encoding="UTF-8"?>
<svg xmlns="http://www.w3.org/2000/svg" width="1080" height="1350" viewBox="0 0 1080 1350">
  <defs>
    <linearGradient id="bg" x1="0" y1="0" x2="1" y2="1">
      <stop offset="0" stop-color="#030303"/>
      <stop offset="0.54" stop-color="#11100f"/>
      <stop offset="1" stop-color="#030303"/>
    </linearGradient>
    <pattern id="grid" width="54" height="54" patternUnits="userSpaceOnUse">
      <path d="M54 0H0V54" fill="none" stroke="#f2f0ea" stroke-opacity="0.045" stroke-width="1"/>
    </pattern>
    <pattern id="paperGrid" width="24" height="24" patternUnits="userSpaceOnUse">
      <path d="M24 0H0V24" fill="none" stroke="#352f25" stroke-opacity="0.36" stroke-width="1"/>
    </pattern>
    <filter id="grain">
      <feTurbulence type="fractalNoise" baseFrequency="0.8" numOctaves="3" stitchTiles="stitch"/>
      <feColorMatrix type="saturate" values="0"/>
      <feComponentTransfer>
        <feFuncA type="table" tableValues="0 0.16"/>
      </feComponentTransfer>
    </filter>
    <radialGradient id="redPool" cx="20%" cy="0%" r="82%">
      <stop offset="0" stop-color="#7a0d0a" stop-opacity="0.48"/>
      <stop offset="0.62" stop-color="#7a0d0a" stop-opacity="0"/>
    </radialGradient>
  </defs>
  <rect width="1080" height="1350" fill="url(#bg)"/>
  <rect width="1080" height="1350" fill="url(#grid)"/>
  <rect width="1080" height="1350" fill="url(#redPool)"/>
  <rect x="42" y="42" width="996" height="1266" fill="none" stroke="#f2f0ea" stroke-opacity="0.16"/>
  <rect x="62" y="62" width="956" height="1226" fill="none" stroke="#7a0d0a" stroke-opacity="0.18"/>
  <line x1="82" y1="92" x2="998" y2="92" stroke="#f2f0ea" stroke-opacity="0.12"/>
  <text x="82" y="124" fill="#b49252" font-family="IBM Plex Mono, Consolas, monospace" font-size="24" font-weight="900" letter-spacing="8">DROP 04</text>
  <text x="82" y="218" fill="#f2f0ea" font-family="Arial Black, Impact, sans-serif" font-size="88" font-weight="800" text-anchor="start"><tspan x="82" dy="0">THE GARNIER</tspan><tspan x="82" dy="90.64">POSITION</tspan></text>
  
    <g transform="translate(180 340)">
      <path d="M86 336 L126 214 L214 160 L312 86 L428 142 L542 206 L628 336 Z" fill="#11100f" stroke="#b49252" stroke-opacity="0.24"/>
      <path d="M208 336 V194 H514 V336 Z" fill="#15110e" stroke="#f2f0ea" stroke-opacity="0.14"/>
      <rect x="238" y="220" width="26" height="64" fill="#b49252" opacity="0.3"/><rect x="292" y="240" width="26" height="64" fill="#b49252" opacity="0.38"/><rect x="346" y="220" width="26" height="64" fill="#b49252" opacity="0.45999999999999996"/><rect x="400" y="240" width="26" height="64" fill="#b49252" opacity="0.54"/><rect x="454" y="220" width="26" height="64" fill="#b49252" opacity="0.62"/>
      <path d="M0 368 H720" stroke="#f2f0ea" stroke-opacity="0.18"/>
      <rect x="0" y="386" width="34" height="42" fill="#0c0c0c" stroke="#f2f0ea" stroke-opacity="0.08"/><rect x="54" y="402" width="34" height="60" fill="#0c0c0c" stroke="#f2f0ea" stroke-opacity="0.08"/><rect x="108" y="418" width="34" height="78" fill="#0c0c0c" stroke="#f2f0ea" stroke-opacity="0.08"/><rect x="162" y="386" width="34" height="96" fill="#0c0c0c" stroke="#f2f0ea" stroke-opacity="0.08"/><rect x="216" y="402" width="34" height="42" fill="#0c0c0c" stroke="#f2f0ea" stroke-opacity="0.08"/><rect x="270" y="418" width="34" height="60" fill="#0c0c0c" stroke="#f2f0ea" stroke-opacity="0.08"/><rect x="324" y="386" width="34" height="78" fill="#0c0c0c" stroke="#f2f0ea" stroke-opacity="0.08"/><rect x="378" y="402" width="34" height="96" fill="#0c0c0c" stroke="#f2f0ea" stroke-opacity="0.08"/><rect x="432" y="418" width="34" height="42" fill="#0c0c0c" stroke="#f2f0ea" stroke-opacity="0.08"/><rect x="486" y="386" width="34" height="60" fill="#0c0c0c" stroke="#f2f0ea" stroke-opacity="0.08"/><rect x="540" y="402" width="34" height="78" fill="#0c0c0c" stroke="#f2f0ea" stroke-opacity="0.08"/><rect x="594" y="418" width="34" height="96" fill="#0c0c0c" stroke="#f2f0ea" stroke-opacity="0.08"/><rect x="648" y="386" width="34" height="42" fill="#0c0c0c" stroke="#f2f0ea" stroke-opacity="0.08"/><rect x="702" y="402" width="34" height="60" fill="#0c0c0c" stroke="#f2f0ea" stroke-opacity="0.08"/>
      <text x="360" y="108" text-anchor="middle" fill="#7a0d0a" font-family="Arial Black, Impact, sans-serif" font-size="32" font-weight="900" opacity="0.82">GARNIER</text>
    </g>
  <rect x="82" y="980" width="916" height="1" fill="#f2f0ea" opacity="0.16"/>
  <text x="82" y="1052" fill="#f2f0ea" font-family="Georgia, Times New Roman, serif" font-size="43" font-weight="700" text-anchor="start"><tspan x="82" dy="0">He owns the room around it.</tspan></text>
  <text x="82" y="1238" fill="#b49252" font-family="IBM Plex Mono, Consolas, monospace" font-size="22" font-weight="900" letter-spacing="5">OPEN THE GARNIER FILE</text>
  <text x="998" y="1238" text-anchor="end" fill="#f2f0ea" opacity="0.48" font-family="IBM Plex Mono, Consolas, monospace" font-size="18" font-weight="900" letter-spacing="4">MONTH ONE</text>
  <rect width="1080" height="1350" filter="url(#grain)" opacity="0.46"/>
</svg>